<svg xmlns="http://www.w3.org/2000/svg" xmlns:xlink="http://www.w3.org/1999/xlink" width="1920" zoomAndPan="magnify" viewBox="0 0 1440 1439.999935" height="1920" preserveAspectRatio="xMidYMid meet" version="1.0"><path fill="#242424" d="M 581.101562 385.707031 L 581.101562 583.839844 L 383.652344 583.492188 L 186.207031 583.144531 L 186.207031 857.527344 L 581.101562 857.527344 L 581.101562 1252.421875 L 858.886719 1252.421875 L 858.886719 857.527344 L 1254.464844 857.527344 L 1254.128906 720.65625 L 1253.796875 583.785156 L 1056.34375 583.8125 L 858.886719 583.839844 L 858.886719 187.566406 L 581.101562 187.566406 Z M 701.453125 299.910156 C 701.183594 300.65625 700.78125 360.707031 700.558594 433.355469 L 700.148438 565.441406 L 696.519531 578.507812 C 687.382812 611.367188 674.371094 633.65625 651.605469 655.4375 C 627.933594 678.082031 603.820312 691.128906 570.886719 699.097656 C 562.394531 701.152344 547.085938 701.488281 430.632812 702.1875 L 299.910156 702.972656 L 299.527344 721.015625 L 299.148438 739.058594 L 427.011719 739.058594 C 565.285156 739.058594 565.550781 739.070312 588.292969 746.496094 C 628.289062 759.550781 662.238281 787.949219 682.320312 825.144531 C 690.003906 839.375 694.40625 851.75 698.054688 869.363281 C 700.863281 882.917969 700.929688 886.246094 700.929688 1012.679688 L 700.929688 1142.121094 L 739.058594 1142.121094 L 739.0625 1015.144531 C 739.070312 875.6875 739.117188 874.707031 747.328125 850.203125 C 764.980469 797.511719 807.671875 757.859375 862.292969 743.429688 L 875.910156 739.832031 L 1140.761719 738.957031 L 1140.761719 702.421875 L 1011.738281 701.9375 C 886.683594 701.46875 882.339844 701.367188 870.464844 698.613281 C 836.738281 690.796875 809.0625 675.816406 786.90625 653.378906 C 764.488281 630.683594 750.433594 605.523438 742.765625 574.378906 C 739.976562 563.042969 739.875 559.019531 739.136719 430.804688 L 738.378906 298.894531 L 720.160156 298.722656 C 709.089844 298.613281 701.753906 299.082031 701.453125 299.910156 " fill-opacity="1" fill-rule="evenodd"/></svg>