<svg xmlns="http://www.w3.org/2000/svg" xmlns:xlink="http://www.w3.org/1999/xlink" width="1920" zoomAndPan="magnify" viewBox="0 0 1440 1439.999935" height="1920" preserveAspectRatio="xMidYMid meet" version="1.0"><path fill="#242424" d="M 643.28125 535.359375 L 643.28125 644.796875 L 534.226562 644.605469 L 425.167969 644.410156 L 425.167969 795.964844 L 643.28125 795.964844 L 643.28125 1014.078125 L 796.714844 1014.078125 L 796.714844 795.964844 L 1015.207031 795.964844 L 1015.023438 720.367188 L 1014.839844 644.765625 L 796.714844 644.796875 L 796.714844 425.917969 L 643.28125 425.917969 Z M 709.757812 487.96875 C 709.609375 488.382812 709.386719 521.550781 709.261719 561.675781 L 709.039062 634.632812 L 707.03125 641.851562 C 701.988281 660 694.800781 672.3125 682.226562 684.34375 C 669.152344 696.851562 655.832031 704.054688 637.640625 708.457031 C 632.953125 709.59375 624.496094 709.777344 560.171875 710.164062 L 487.96875 710.597656 L 487.757812 720.5625 L 487.550781 730.527344 L 558.171875 730.527344 C 634.546875 730.527344 634.695312 730.535156 647.257812 734.636719 C 669.347656 741.847656 688.097656 757.535156 699.191406 778.078125 C 703.433594 785.9375 705.867188 792.773438 707.882812 802.5 C 709.433594 809.988281 709.46875 811.824219 709.46875 881.664062 L 709.46875 953.15625 L 730.527344 953.15625 L 730.53125 883.023438 C 730.535156 805.992188 730.5625 805.453125 735.097656 791.917969 C 744.847656 762.816406 768.429688 740.914062 798.597656 732.945312 L 806.117188 730.957031 L 952.40625 730.472656 L 952.40625 710.292969 L 881.140625 710.027344 C 812.070312 709.765625 809.671875 709.710938 803.109375 708.1875 C 784.480469 703.871094 769.195312 695.597656 756.957031 683.203125 C 744.574219 670.667969 736.8125 656.773438 732.578125 639.570312 C 731.035156 633.308594 730.980469 631.085938 730.574219 560.269531 L 730.152344 487.410156 L 720.089844 487.3125 C 713.976562 487.253906 709.925781 487.511719 709.757812 487.96875 " fill-opacity="1" fill-rule="evenodd"/></svg>